<mxfile host="app.diagrams.net" modified="2021-12-28T11:28:17.826Z" agent="5.0 (Macintosh; Intel Mac OS X 10_15_7) AppleWebKit/605.1.15 (KHTML, like Gecko) Version/15.1 Safari/605.1.15" etag="ZfffrcVAX1rLbLiSsqob" version="16.1.0" type="github">
  <diagram id="C5RBs43oDa-KdzZeNtuy" name="Page-1">
    <mxGraphModel dx="1358" dy="679" grid="1" gridSize="10" guides="1" tooltips="1" connect="1" arrows="1" fold="1" page="1" pageScale="1" pageWidth="827" pageHeight="1169" math="0" shadow="0">
      <root>
        <mxCell id="WIyWlLk6GJQsqaUBKTNV-0" />
        <mxCell id="WIyWlLk6GJQsqaUBKTNV-1" parent="WIyWlLk6GJQsqaUBKTNV-0" />
        <mxCell id="-6zXL3fdGh1FK71QrmsP-4" value="" style="edgeStyle=orthogonalEdgeStyle;rounded=0;orthogonalLoop=1;jettySize=auto;html=1;" edge="1" parent="WIyWlLk6GJQsqaUBKTNV-1" source="-6zXL3fdGh1FK71QrmsP-0" target="-6zXL3fdGh1FK71QrmsP-3">
          <mxGeometry relative="1" as="geometry" />
        </mxCell>
        <mxCell id="-6zXL3fdGh1FK71QrmsP-0" value="ClickBtn&lt;br&gt;&lt;br&gt;forbiddenBtnClickable=true" style="rounded=1;whiteSpace=wrap;html=1;" vertex="1" parent="WIyWlLk6GJQsqaUBKTNV-1">
          <mxGeometry x="120" y="180" width="240" height="90" as="geometry" />
        </mxCell>
        <mxCell id="-6zXL3fdGh1FK71QrmsP-6" value="" style="edgeStyle=orthogonalEdgeStyle;rounded=0;orthogonalLoop=1;jettySize=auto;html=1;" edge="1" parent="WIyWlLk6GJQsqaUBKTNV-1" source="-6zXL3fdGh1FK71QrmsP-3" target="-6zXL3fdGh1FK71QrmsP-5">
          <mxGeometry relative="1" as="geometry" />
        </mxCell>
        <mxCell id="-6zXL3fdGh1FK71QrmsP-8" value="" style="edgeStyle=orthogonalEdgeStyle;rounded=0;orthogonalLoop=1;jettySize=auto;html=1;dashed=1;entryX=0.5;entryY=0;entryDx=0;entryDy=0;" edge="1" parent="WIyWlLk6GJQsqaUBKTNV-1" source="-6zXL3fdGh1FK71QrmsP-3" target="-6zXL3fdGh1FK71QrmsP-9">
          <mxGeometry relative="1" as="geometry" />
        </mxCell>
        <mxCell id="-6zXL3fdGh1FK71QrmsP-3" value="shotScreen" style="whiteSpace=wrap;html=1;rounded=1;" vertex="1" parent="WIyWlLk6GJQsqaUBKTNV-1">
          <mxGeometry x="180" y="340" width="120" height="60" as="geometry" />
        </mxCell>
        <mxCell id="-6zXL3fdGh1FK71QrmsP-5" value="hideSmallScreenShotView&lt;br&gt;&lt;br&gt;lastBitmap.recycle()&lt;br&gt;lastBitmap=null" style="whiteSpace=wrap;html=1;rounded=1;" vertex="1" parent="WIyWlLk6GJQsqaUBKTNV-1">
          <mxGeometry x="110" y="450" width="260" height="65" as="geometry" />
        </mxCell>
        <mxCell id="-6zXL3fdGh1FK71QrmsP-18" value="" style="edgeStyle=orthogonalEdgeStyle;rounded=0;orthogonalLoop=1;jettySize=auto;html=1;" edge="1" parent="WIyWlLk6GJQsqaUBKTNV-1" source="-6zXL3fdGh1FK71QrmsP-7" target="-6zXL3fdGh1FK71QrmsP-17">
          <mxGeometry relative="1" as="geometry" />
        </mxCell>
        <mxCell id="-6zXL3fdGh1FK71QrmsP-19" style="edgeStyle=orthogonalEdgeStyle;rounded=0;orthogonalLoop=1;jettySize=auto;html=1;" edge="1" parent="WIyWlLk6GJQsqaUBKTNV-1" source="-6zXL3fdGh1FK71QrmsP-7" target="-6zXL3fdGh1FK71QrmsP-15">
          <mxGeometry relative="1" as="geometry">
            <Array as="points">
              <mxPoint x="420" y="695" />
              <mxPoint x="420" y="980" />
            </Array>
          </mxGeometry>
        </mxCell>
        <mxCell id="-6zXL3fdGh1FK71QrmsP-7" value="onShotSuccess&lt;br&gt;&lt;br&gt;lastBitmap=bitmap&lt;br&gt;ControllerShow" style="whiteSpace=wrap;html=1;rounded=1;" vertex="1" parent="WIyWlLk6GJQsqaUBKTNV-1">
          <mxGeometry x="490" y="650" width="190" height="90" as="geometry" />
        </mxCell>
        <mxCell id="-6zXL3fdGh1FK71QrmsP-11" style="edgeStyle=orthogonalEdgeStyle;rounded=0;orthogonalLoop=1;jettySize=auto;html=1;exitX=0.5;exitY=1;exitDx=0;exitDy=0;" edge="1" parent="WIyWlLk6GJQsqaUBKTNV-1" source="-6zXL3fdGh1FK71QrmsP-9" target="-6zXL3fdGh1FK71QrmsP-7">
          <mxGeometry relative="1" as="geometry" />
        </mxCell>
        <mxCell id="-6zXL3fdGh1FK71QrmsP-12" style="edgeStyle=orthogonalEdgeStyle;rounded=0;orthogonalLoop=1;jettySize=auto;html=1;exitX=0.5;exitY=1;exitDx=0;exitDy=0;" edge="1" parent="WIyWlLk6GJQsqaUBKTNV-1" source="-6zXL3fdGh1FK71QrmsP-9" target="-6zXL3fdGh1FK71QrmsP-10">
          <mxGeometry relative="1" as="geometry" />
        </mxCell>
        <mxCell id="-6zXL3fdGh1FK71QrmsP-14" style="edgeStyle=orthogonalEdgeStyle;rounded=0;orthogonalLoop=1;jettySize=auto;html=1;exitX=1;exitY=0.5;exitDx=0;exitDy=0;" edge="1" parent="WIyWlLk6GJQsqaUBKTNV-1" source="-6zXL3fdGh1FK71QrmsP-9" target="-6zXL3fdGh1FK71QrmsP-13">
          <mxGeometry relative="1" as="geometry" />
        </mxCell>
        <mxCell id="-6zXL3fdGh1FK71QrmsP-9" value="onShotBefore&lt;br&gt;&lt;br&gt;ControllerHideEvent()&lt;br&gt;lastBitmap?.recycle()&lt;br&gt;lastBitmap=null" style="whiteSpace=wrap;html=1;rounded=1;" vertex="1" parent="WIyWlLk6GJQsqaUBKTNV-1">
          <mxGeometry x="660" y="420" width="150" height="110" as="geometry" />
        </mxCell>
        <mxCell id="-6zXL3fdGh1FK71QrmsP-10" value="onShotSuccess" style="whiteSpace=wrap;html=1;rounded=1;" vertex="1" parent="WIyWlLk6GJQsqaUBKTNV-1">
          <mxGeometry x="770" y="650" width="170" height="90" as="geometry" />
        </mxCell>
        <mxCell id="-6zXL3fdGh1FK71QrmsP-13" value="hideSmallScreenShotView&lt;br&gt;&lt;br&gt;lastBitmap.recycle()&lt;br&gt;lastBitmap=null" style="whiteSpace=wrap;html=1;rounded=1;" vertex="1" parent="WIyWlLk6GJQsqaUBKTNV-1">
          <mxGeometry x="960" y="550" width="260" height="65" as="geometry" />
        </mxCell>
        <mxCell id="-6zXL3fdGh1FK71QrmsP-15" value="saveToAlbum" style="whiteSpace=wrap;html=1;rounded=1;" vertex="1" parent="WIyWlLk6GJQsqaUBKTNV-1">
          <mxGeometry x="525" y="950" width="120" height="60" as="geometry" />
        </mxCell>
        <mxCell id="-6zXL3fdGh1FK71QrmsP-17" value="endScreenShot&lt;br&gt;&lt;br&gt;clearScreenShotImg&lt;br&gt;addImg&lt;br&gt;ShowSmallView" style="whiteSpace=wrap;html=1;rounded=1;" vertex="1" parent="WIyWlLk6GJQsqaUBKTNV-1">
          <mxGeometry x="502.5" y="810" width="165" height="85" as="geometry" />
        </mxCell>
        <mxCell id="-6zXL3fdGh1FK71QrmsP-20" value="saveSuccess&lt;br&gt;&lt;br&gt;lastFilePath=savePath" style="whiteSpace=wrap;html=1;rounded=1;" vertex="1" parent="WIyWlLk6GJQsqaUBKTNV-1">
          <mxGeometry x="1000" y="1030" width="160" height="70" as="geometry" />
        </mxCell>
        <mxCell id="-6zXL3fdGh1FK71QrmsP-22" value="" style="edgeStyle=orthogonalEdgeStyle;rounded=0;orthogonalLoop=1;jettySize=auto;html=1;dashed=1;entryX=0.5;entryY=0;entryDx=0;entryDy=0;" edge="1" parent="WIyWlLk6GJQsqaUBKTNV-1">
          <mxGeometry relative="1" as="geometry">
            <mxPoint x="645" y="980" as="sourcePoint" />
            <mxPoint x="1080" y="1030" as="targetPoint" />
          </mxGeometry>
        </mxCell>
      </root>
    </mxGraphModel>
  </diagram>
</mxfile>
